<?xml version="1.0" encoding="UTF-8" standalone="no"?>
<!-- Generator: Adobe Illustrator 18.1.0, SVG Export Plug-In . SVG Version: 6.00 Build 0)  -->

<svg
   version="1.1"
   id="Layer_1"
   x="0px"
   y="0px"
   viewBox="0 0 1500 1500"
   enable-background="new 0 0 1500 1500"
   xml:space="preserve"
   sodipodi:docname="crisnpr11.svg"
   inkscape:version="1.1.1 (eb90963e84, 2021-10-02)"
   inkscape:export-filename="/home/asgar/flask/crispsnps/static/crisnpr11.png"
   inkscape:export-xdpi="600"
   inkscape:export-ydpi="600"
   xmlns:inkscape="http://www.inkscape.org/namespaces/inkscape"
   xmlns:sodipodi="http://sodipodi.sourceforge.net/DTD/sodipodi-0.dtd"
   xmlns="http://www.w3.org/2000/svg"
   xmlns:svg="http://www.w3.org/2000/svg"><defs
   id="defs19"><rect
     x="312.44287"
     y="1270.7038"
     width="897.17635"
     height="114.12742"
     id="rect4665" /></defs><sodipodi:namedview
   id="namedview17"
   pagecolor="#ffffff"
   bordercolor="#666666"
   borderopacity="1.0"
   inkscape:pageshadow="2"
   inkscape:pageopacity="0.0"
   inkscape:pagecheckerboard="0"
   showgrid="false"
   inkscape:snap-text-baseline="true"
   inkscape:zoom="0.33589188"
   inkscape:cx="449.54942"
   inkscape:cy="748.75284"
   inkscape:window-width="1853"
   inkscape:window-height="1022"
   inkscape:window-x="67"
   inkscape:window-y="30"
   inkscape:window-maximized="1"
   inkscape:current-layer="Layer_1" />
<g
   id="g14"
   transform="matrix(1.1431825,0,0,0.8145784,-176.92809,1.673901)"
   inkscape:export-filename="/home/asgar/CRISNPR_files/crisnpr1.png"
   inkscape:export-xdpi="100"
   inkscape:export-ydpi="100">
	<path
   fill="#a85963"
   d="m 243.5,382.1 409,-204.4 -8.9,-17.8 -416.9,208.3 c -20.9,-19.8 -35,-43.7 -40.6,-72.6 0,0 -54.4,208.4 154,262.8 39.2,10.3 90.1,14.5 147.2,15.7 C 511,536 538.7,497.8 568.8,459.9 435.5,452.1 313.1,433.2 243.5,382.1 Z"
   id="path2"
   style="fill:#772953;fill-opacity:1" />
	<path
   fill="#a85963"
   d="m 631.1,572.8 c 223.7,-5.7 471.2,-19.1 504.2,92.1 0,0 -9.3,-182.1 -147.2,-192.6 -73.6,-5.6 -163,-5.8 -255,-7.3 -15.6,17 -32.4,34.5 -50.8,52.5 -18.8,18.6 -35.7,37 -51.2,55.3 z"
   id="path4"
   style="fill:#772953;fill-opacity:1" />
	<path
   fill="#a85963"
   d="m 983.2,957.4 c 108,-123.8 159.4,-230.3 125,-290.2 0,0 -18.1,-47.6 -52.1,-47.6 0,0 -4.2,28 -31,80.1 l -354.4,177.1 8.9,17.8 328.5,-164.2 c -32.5,55.4 -86.6,130.4 -176.4,222.1 -3.7,3.8 -7.2,7.6 -10.8,11.4 -36.1,38.2 -65.5,76.3 -88.8,113.7 -103.1,165 -88.1,315.3 -4.7,391.5 0,0 -0.8,-97.1 38.2,-209.7 l 294.5,-147.2 -8.9,-17.8 -275.4,137.6 c 21.3,-53.3 51.9,-108.6 96,-157.6 6.7,-7.5 13.7,-14.9 21,-22 33.4,-32.5 63.6,-64.3 90.4,-95 z"
   id="path6"
   style="fill:#772953;fill-opacity:1" />
	<path
   fill="#189a62"
   d="m 1185.1,945.8 c -59.8,1.8 -129.9,7.1 -201.9,11.5 -26.8,30.7 -57,62.5 -90.3,94.9 -7.4,7.2 -14.3,14.5 -21,22 4.7,-0.5 9.4,-1 14.2,-1.6 172,-22.3 343.9,-27.7 447.4,8 l -408,203.9 8.9,17.8 423.8,-211.8 c 30.9,14.5 53.4,33.9 64.7,59.1 0.1,0.1 -9,-210.5 -237.8,-203.8 z"
   id="path8"
   style="fill:#e95420;fill-opacity:1" />
	<path
   fill="#189a62"
   d="m 514.6,873.3 c 0,0 -20.4,95.1 9.1,142.7 0,0 68.2,51.1 208.5,61.6 23.3,-37.4 52.8,-75.5 88.8,-113.7 -145.4,1.2 -272.1,-15.8 -306.4,-90.6 z"
   id="path10"
   style="fill:#e95420;fill-opacity:1" />
	<path
   fill="#189a62"
   d="m 885.2,634.7 -8.9,-17.8 -372.6,186.2 c 19.9,-68.1 57.8,-147.9 127.4,-230.3 15.5,-18.3 32.4,-36.7 51.2,-55.2 18.3,-18 35.2,-35.5 50.8,-52.5 C 936,243.6 916,102.6 840.9,30.6 c 0,0 1.1,61.3 -70.5,176.3 L 477.1,353.5 486,371.3 748.6,240 c -25.2,36.7 -57.2,77.9 -98,123.5 -28.4,31.7 -55.9,63.9 -81.6,96.2 -30.1,37.9 -57.8,76.1 -81.5,114.2 -93.4,150.3 -124.9,299.7 -0.1,426.1 0,0 -15,-69.5 9.5,-171.3 z"
   id="path12"
   style="fill:#e95420;fill-opacity:1" />
</g>
<text
   xml:space="preserve"
   id="text4663"
   style="font-size:53.3333px;line-height:1.25;font-family:Sans;-inkscape-font-specification:'Sans, Normal';font-variant-ligatures:none;white-space:pre;shape-inside:url(#rect4665)"
   inkscape:export-filename="/home/asgar/CRISNPR_files/crisnpr1.png"
   inkscape:export-xdpi="100"
   inkscape:export-ydpi="100"
   transform="matrix(1.0534968,0,0,1.1416274,27.542273,-3.7672895)" /><text
   xml:space="preserve"
   style="font-style:normal;font-variant:normal;font-weight:bold;font-stretch:normal;font-size:359.03px;line-height:1.25;font-family:'Ubuntu Mono';-inkscape-font-specification:'Ubuntu Mono, Bold';font-variant-ligatures:none;font-variant-caps:normal;font-variant-numeric:normal;font-variant-east-asian:normal;text-align:center;writing-mode:lr-tb;text-anchor:middle;fill:#772953;fill-opacity:1;stroke-width:2.15417"
   x="90.057907"
   y="1590.6161"
   id="text14505"
   transform="scale(1.0839089,0.92258675)"
   inkscape:export-filename="/home/asgar/CRISNPR_files/crisnpr1.png"
   inkscape:export-xdpi="100"
   inkscape:export-ydpi="100"><tspan
     sodipodi:role="line"
     id="tspan14503"
     x="90.057892"
     y="1590.6161"
     style="font-style:normal;font-variant:normal;font-weight:bold;font-stretch:normal;font-size:359.03px;font-family:Ubuntu;-inkscape-font-specification:'Ubuntu Bold';font-variant-ligatures:none;font-variant-caps:normal;font-variant-numeric:normal;font-variant-east-asian:normal;fill:#772953;fill-opacity:1;stroke-width:2.15417">              CriSNPr</tspan></text></svg>
